name Walk2.mot
datacolumns 19
datarows 20
range 0.33500000 0.43000000
endheader

                time	   L_ground_force_vx	   L_ground_force_vy	   L_ground_force_vz	   L_ground_force_px	   L_ground_force_py	   L_ground_force_pz	   R_ground_force_vx	   R_ground_force_vy	   R_ground_force_vz	   R_ground_force_px	   R_ground_force_py	   R_ground_force_pz	   L_ground_torque_x	   L_ground_torque_y	   L_ground_torque_z	   R_ground_torque_x	   R_ground_torque_y	   R_ground_torque_z	
          0.33500000	         -7.41946853	         65.07134530	         -0.27415293	         -0.14670159	          0.00000000	         -0.00940207	         -0.00000000	          0.00000000	          0.00000000	          0.00000000	          0.00000000	          0.00000000	          0.00000000	          0.06682549	          0.00000000	          0.00000000	          0.00000000	          0.00000000	
          0.34000000	        -11.36030063	         96.23754267	         -0.91905866	         -0.19278103	          0.00000000	         -0.01270100	         -0.00000000	          0.00000000	          0.00000000	          0.00000000	          0.00000000	          0.00000000	          0.00000000	          0.08871666	          0.00000000	          0.00000000	          0.00000000	          0.00000000	
          0.34500000	        -16.10487247	        132.96949141	         -1.81131494	         -0.24087705	          0.00000000	         -0.01627930	         -0.00000000	          0.00000000	          0.00000000	          0.00000000	          0.00000000	          0.00000000	          0.00000000	          0.11192419	          0.00000000	          0.00000000	          0.00000000	          0.00000000	
          0.35000000	        -21.54506138	        173.92320775	         -2.97473782	         -0.28702152	          0.00000000	         -0.01988252	         -0.00000000	          0.00000000	          0.00000000	         -0.00000000	          0.00000000	         -0.00000000	          0.00000000	          0.13506099	          0.00000000	          0.00000000	          0.00000000	          0.00000000	
          0.35500000	        -27.58367189	        217.05014186	         -4.38062993	         -0.32814563	          0.00000000	         -0.02326758	         -0.00000000	          0.00000000	          0.00000000	         -0.00000000	          0.00000000	         -0.00000000	          0.00000000	          0.15904308	          0.00000000	          0.00000000	          0.00000000	          0.00000000	
          0.36000000	        -34.23052782	        260.26497754	         -5.89719378	         -0.36260071	          0.00000000	         -0.02628409	         -0.00000000	         -0.00000000	         -0.00000000	         -0.00000000	          0.00000000	         -0.00000000	          0.00000000	          0.18785119	          0.00000000	          0.00000000	          0.00000000	          0.00000000	
          0.36500000	        -41.54558051	        301.91260673	         -7.30786581	         -0.38981997	          0.00000000	         -0.02887048	         -0.00000000	         -0.00000000	         -0.00000000	         -0.00000000	          0.00000000	         -0.00000000	          0.00000000	          0.22645513	          0.00000000	          0.00000000	          0.00000000	          0.00000000	
          0.37000000	        -49.54069944	        340.87154646	         -8.39427816	         -0.40998364	          0.00000000	         -0.03102718	         -0.00000000	         -0.00000001	         -0.00000000	         -0.00000000	          0.00000000	         -0.00000000	          0.00000000	          0.27774526	          0.00000000	          0.00000000	          0.00000000	          0.00000000	
          0.37500000	        -58.15671228	        376.58533626	         -8.99795691	         -0.42374382	          0.00000000	         -0.03279073	         -0.00000000	         -0.00000001	         -0.00000000	         -0.00000000	          0.00000000	         -0.00000000	          0.00000000	          0.34116619	          0.00000000	          0.00000000	          0.00000000	          0.00000000	
          0.38000000	        -67.31119332	        409.03401940	         -9.03450469	         -0.43200931	          0.00000000	         -0.03421492	         -0.00000000	         -0.00000002	         -0.00000000	         -0.00000000	          0.00000000	         -0.00000000	          0.00000000	          0.41401478	          0.00000000	          0.00000000	          0.00000000	          0.00000000	
          0.38500000	        -76.95348046	        438.59557911	         -8.48704955	         -0.43579673	          0.00000000	         -0.03535792	         -0.00000000	         -0.00000003	         -0.00000000	         -0.00000000	          0.00000000	         -0.00000000	          0.00000000	          0.49313997	          0.00000000	          0.00000000	          0.00000000	          0.00000000	
          0.39000000	        -87.05173913	        465.81479900	         -7.40748395	         -0.43612825	          0.00000000	         -0.03627146	          0.00000000	         -0.00000004	         -0.00000000	         -0.00000000	          0.00000000	         -0.00000000	          0.00000000	          0.57707250	          0.00000000	          0.00000000	          0.00000000	          0.00000000	
          0.39500000	        -97.51155154	        491.19735441	         -5.92430962	         -0.43395683	          0.00000000	         -0.03699482	          0.00000000	         -0.00000005	         -0.00000000	         -0.00000000	          0.00000000	         -0.00000000	          0.00000000	          0.66737416	          0.00000000	          0.00000000	         -0.00000000	          0.00000000	
          0.40000000	       -108.11982630	        515.13423834	         -4.19975145	         -0.43011844	          0.00000000	         -0.03755896	          0.00000000	         -0.00000006	         -0.00000000	         -0.00000000	          0.00000000	         -0.00000000	          0.00000000	          0.76837281	          0.00000000	          0.00000000	         -0.00000000	          0.00000000	
          0.40500000	       -118.57330092	        537.92249302	         -2.36807004	         -0.42531317	          0.00000000	         -0.03798979	          0.00000001	         -0.00000006	         -0.00000000	         -0.00000000	          0.00000000	         -0.00000000	          0.00000000	          0.88556571	          0.00000000	          0.00000000	         -0.00000000	          0.00000000	
          0.41000000	       -128.54417151	        559.78774076	         -0.52566616	         -0.42009775	          0.00000000	         -0.03831132	          0.00000001	         -0.00000007	         -0.00000000	         -0.00000000	          0.00000000	         -0.00000000	          0.00000000	          1.02372287	          0.00000000	          0.00000000	         -0.00000000	          0.00000000	
          0.41500000	       -137.72741756	        580.86376821	          1.27040328	         -0.41489034	          0.00000000	         -0.03854758	          0.00000001	         -0.00000006	         -0.00000000	         -0.00000000	          0.00000000	         -0.00000000	          0.00000000	          1.18437530	          0.00000000	          0.00000000	         -0.00000000	          0.00000000	
          0.42000000	       -145.85734982	        601.19646263	          3.00886862	         -0.40998595	          0.00000000	         -0.03872190	          0.00000001	         -0.00000005	         -0.00000000	         -0.00000000	          0.00000000	          0.00000000	          0.00000000	          1.36446367	          0.00000000	          0.00000000	         -0.00000000	          0.00000000	
          0.42500000	       -152.71590133	        620.78240001	          4.70998828	         -0.40557459	          0.00000000	         -0.03885223	          0.00000002	         -0.00000003	         -0.00000000	          0.00000000	          0.00000000	          0.00000000	          0.00000000	          1.55909922	          0.00000000	          0.00000000	         -0.00000000	          0.00000000	
          0.43000000	       -158.14258109	        639.59508039	          6.39765376	         -0.40176174	          0.00000000	         -0.03895068	          0.00000002	          0.00000002	         -0.00000000	          0.00000000	          0.00000000	          0.00000000	          0.00000000	          1.76344731	          0.00000000	          0.00000000	         -0.00000000	          0.00000000	
